<svg width="18" height="15" viewBox="0 0 18 15" fill="none" xmlns="http://www.w3.org/2000/svg">
<path d="M15.753 6.31864C15.753 9.80833 12.7072 12.6373 8.94997 12.6373C5.19277 12.6373 2.14696 9.80833 2.14696 6.31864C2.14696 2.82895 5.19277 0 8.94997 0C12.7072 0 15.753 2.82895 15.753 6.31864Z" fill="#d572be"/>
<path d="M0 9.51422C0 10 1.78981 12.5349 3.43748 13.5253C5.08515 14.5157 7.08238 15.0331 9.12372 14.9984C11.1651 14.9637 13.1381 14.3787 14.7411 13.3331C16.3441 12.2874 17.4887 10.8386 18 9.20816L16.1728 8.82239C15.7648 10.1235 14.8514 11.2796 13.5722 12.1141C12.293 12.9485 10.7186 13.4152 9.08958 13.4429C7.46061 13.4706 5.86682 13.0578 4.55199 12.2674C3.23716 11.4771 2.27368 10.3529 1.8089 9.06663L0 9.51422Z" fill="#d572be"/>
</svg>
