<svg width="18" height="16" fill="none" xmlns="http://www.w3.org/2000/svg">
<path d="M10.9818 13.8744C7.55317 13.8644 4.78141 11.2181 4.79087 7.96361C4.80032 4.70915 7.58741 2.07896 11.016 2.08893C14.4446 2.09889 17.2164 4.74523 17.2069 7.99969C17.1974 11.2541 14.4104 13.8843 10.9818 13.8744Z" fill="#C4C4C4"/>
<path d="M6.38045 0.219555C4.91877 1.08023 3.40816 1.76126 2.43097 3.18563C1.45377 4.61 0.940398 6.33852 0.969363 8.10681C0.998328 9.8751 1.56804 11.5858 2.59136 12.9773C3.61468 14.3688 5.42284 14.9411 6.63585 15.8119C7.84886 16.6827 7.01946 14.2303 7.01946 14.2303C5.7422 13.8732 4.60858 13.0787 3.79197 11.9683C2.97537 10.8579 2.52074 9.49277 2.49763 8.08169C2.47452 6.6706 2.88419 5.29125 3.66399 4.15461C4.44378 3.01796 5.55078 2.18661 6.81565 1.78769C6.81565 1.78769 7.84212 -0.641123 6.38045 0.219555Z" fill="blue"/>
</svg>
