<svg width="125" height="25" viewBox="0 0 384 89" fill="none" xmlns="http://www.w3.org/2000/svg">
<path d="M35.91 77.03H11.34V30.77H0V89H34.65C39.03 89 42.78 88.49 45.9 87.47C49.08 86.45 51.69 84.86 53.73 82.7C55.77 80.48 57.27 77.66 58.23 74.24C59.19 70.76 59.67 66.62 59.67 61.82V27.89C59.67 22.91 59.19 18.71 58.23 15.29C57.27 11.81 55.77 8.99 53.73 6.83C51.69 4.66999 49.08 3.11 45.9 2.15C42.78 1.19 39.03 0.709994 34.65 0.709994H0V12.68H35.82C38.1 12.68 40.02 13.01 41.58 13.67C43.2 14.27 44.49 15.14 45.45 16.28C46.47 17.42 47.19 18.77 47.61 20.33C48.09 21.89 48.33 23.57 48.33 25.37V64.34C48.33 66.14 48.09 67.82 47.61 69.38C47.19 70.94 46.47 72.29 45.45 73.43C44.49 74.57 43.23 75.47 41.67 76.13C40.11 76.73 38.19 77.03 35.91 77.03ZM31.41 27.89C32.13 27.89 32.7 28.1 33.12 28.52C33.6 28.94 33.84 29.51 33.84 30.23V59.48C33.84 60.2 33.6 60.77 33.12 61.19C32.7 61.61 32.13 61.82 31.41 61.82H29.43C27.93 61.82 27.18 61.04 27.18 59.48V30.77H14.58V73.79H34.74C36.84 73.79 38.55 73.61 39.87 73.25C41.25 72.83 42.3 72.17 43.02 71.27C43.8 70.37 44.34 69.23 44.64 67.85C44.94 66.41 45.09 64.64 45.09 62.54V27.17C45.09 25.61 44.94 24.14 44.64 22.76C44.34 21.38 43.8 20.18 43.02 19.16C42.24 18.14 41.16 17.36 39.78 16.82C38.46 16.22 36.75 15.92 34.65 15.92H0V27.89H31.41ZM63.1055 27.89C63.1055 24.11 63.7955 20.57 65.1755 17.27C66.5555 13.91 68.3855 11.03 70.6655 8.62999C73.0055 6.17 75.6755 4.25 78.6755 2.87C81.7355 1.43 84.8855 0.709994 88.1255 0.709994H122.235V12.68H89.5655C87.2855 12.68 85.2455 13.13 83.4455 14.03C81.6455 14.93 80.1155 16.1 78.8555 17.54C77.6555 18.98 76.7255 20.63 76.0655 22.49C75.4055 24.29 75.0755 26.09 75.0755 27.89V61.82C75.0755 63.62 75.4055 65.45 76.0655 67.31C76.7255 69.11 77.6555 70.73 78.8555 72.17C80.1155 73.61 81.6455 74.78 83.4455 75.68C85.2455 76.58 87.2855 77.03 89.5655 77.03H122.235V89H88.1255C84.8855 89 81.7355 88.31 78.6755 86.93C75.6755 85.49 73.0055 83.57 70.6655 81.17C68.3855 78.71 66.5555 75.83 65.1755 72.53C63.7955 69.17 63.1055 65.6 63.1055 61.82V27.89ZM78.3155 43.37V29.69C78.3155 28.13 78.5555 26.54 79.0355 24.92C79.5755 23.24 80.3555 21.74 81.3755 20.42C82.3955 19.1 83.6855 18.02 85.2455 17.18C86.8055 16.34 88.6355 15.92 90.7355 15.92H122.235V27.89H91.0055C90.6455 27.89 90.2555 28.1 89.8355 28.52C89.4755 28.94 89.2955 29.51 89.2955 30.23V31.49H115.395V43.37H78.3155ZM78.3155 46.34H115.395V58.31H89.2955V59.48C89.2955 60.2 89.4755 60.77 89.8355 61.19C90.2555 61.61 90.6455 61.82 91.0055 61.82H122.235V73.79H90.7355C88.6355 73.79 86.8055 73.37 85.2455 72.53C83.6855 71.69 82.3955 70.61 81.3755 69.29C80.3555 67.97 79.5755 66.5 79.0355 64.88C78.5555 63.2 78.3155 61.58 78.3155 60.02V46.34ZM187.053 89V27.89C187.053 22.91 186.573 18.71 185.613 15.29C184.653 11.81 183.153 8.99 181.113 6.83C179.073 4.66999 176.463 3.11 173.283 2.15C170.163 1.19 166.413 0.709994 162.033 0.709994H126.123V12.68H163.203C165.483 12.68 167.403 13.01 168.963 13.67C170.583 14.27 171.873 15.14 172.833 16.28C173.853 17.42 174.573 18.77 174.993 20.33C175.473 21.89 175.713 23.57 175.713 25.37V89H187.053ZM158.793 27.89C159.513 27.89 160.083 28.1 160.503 28.52C160.983 28.94 161.223 29.51 161.223 30.23V89H172.473V27.17C172.473 25.61 172.323 24.14 172.023 22.76C171.723 21.38 171.183 20.18 170.403 19.16C169.623 18.14 168.543 17.36 167.163 16.82C165.843 16.22 164.133 15.92 162.033 15.92H126.123V27.89H158.793ZM153.303 30.77H140.703V89H153.303V30.77ZM137.463 89V30.77H126.123V89H137.463ZM257.209 89H216.709C213.469 89 210.319 88.31 207.259 86.93C204.259 85.49 201.589 83.57 199.249 81.17C196.969 78.71 195.139 75.83 193.759 72.53C192.379 69.17 191.689 65.6 191.689 61.82V27.89C191.689 24.11 192.379 20.57 193.759 17.27C195.139 13.91 196.969 11.03 199.249 8.62999C201.589 6.17 204.259 4.25 207.259 2.87C210.319 1.43 213.469 0.709994 216.709 0.709994H257.209V12.68H218.149C215.869 12.68 213.829 13.13 212.029 14.03C210.229 14.93 208.699 16.1 207.439 17.54C206.239 18.98 205.309 20.63 204.649 22.49C203.989 24.29 203.659 26.09 203.659 27.89V61.82C203.659 63.62 203.989 65.45 204.649 67.31C205.309 69.11 206.239 70.73 207.439 72.17C208.699 73.61 210.229 74.78 212.029 75.68C213.829 76.58 215.869 77.03 218.149 77.03H247.129V43.37H220.309V31.49H257.209V89ZM219.589 61.82H229.489C229.909 61.82 230.209 61.64 230.389 61.28C230.629 60.92 230.749 60.53 230.749 60.11C230.749 59.63 230.629 59.21 230.389 58.85C230.209 58.49 229.909 58.31 229.489 58.31H220.309V46.34H243.979V73.79H219.319C217.219 73.79 215.389 73.37 213.829 72.53C212.269 71.69 210.979 70.61 209.959 69.29C208.939 67.97 208.159 66.5 207.619 64.88C207.139 63.2 206.899 61.58 206.899 60.02V29.69C206.899 28.13 207.139 26.54 207.619 24.92C208.159 23.24 208.939 21.74 209.959 20.42C210.979 19.1 212.269 18.02 213.829 17.18C215.389 16.34 217.219 15.92 219.319 15.92H257.209V27.89H219.589C219.229 27.89 218.839 28.1 218.419 28.52C218.059 28.94 217.879 29.51 217.879 30.23V59.48C217.879 60.2 218.059 60.77 218.419 61.19C218.839 61.61 219.229 61.82 219.589 61.82ZM261.211 27.89C261.211 24.11 261.901 20.57 263.281 17.27C264.661 13.91 266.491 11.03 268.771 8.62999C271.111 6.17 273.781 4.25 276.781 2.87C279.841 1.43 282.991 0.709994 286.231 0.709994H320.341V12.68H287.671C285.391 12.68 283.351 13.13 281.551 14.03C279.751 14.93 278.221 16.1 276.961 17.54C275.761 18.98 274.831 20.63 274.171 22.49C273.511 24.29 273.181 26.09 273.181 27.89V61.82C273.181 63.62 273.511 65.45 274.171 67.31C274.831 69.11 275.761 70.73 276.961 72.17C278.221 73.61 279.751 74.78 281.551 75.68C283.351 76.58 285.391 77.03 287.671 77.03H320.341V89H286.231C282.991 89 279.841 88.31 276.781 86.93C273.781 85.49 271.111 83.57 268.771 81.17C266.491 78.71 264.661 75.83 263.281 72.53C261.901 69.17 261.211 65.6 261.211 61.82V27.89ZM276.421 43.37V29.69C276.421 28.13 276.661 26.54 277.141 24.92C277.681 23.24 278.461 21.74 279.481 20.42C280.501 19.1 281.791 18.02 283.351 17.18C284.911 16.34 286.741 15.92 288.841 15.92H320.341V27.89H289.111C288.751 27.89 288.361 28.1 287.941 28.52C287.581 28.94 287.401 29.51 287.401 30.23V31.49H313.501V43.37H276.421ZM276.421 46.34H313.501V58.31H287.401V59.48C287.401 60.2 287.581 60.77 287.941 61.19C288.361 61.61 288.751 61.82 289.111 61.82H320.341V73.79H288.841C286.741 73.79 284.911 73.37 283.351 72.53C281.791 71.69 280.501 70.61 279.481 69.29C278.461 67.97 277.681 66.5 277.141 64.88C276.661 63.2 276.421 61.58 276.421 60.02V46.34ZM383.359 89H349.249C346.009 89 342.859 88.31 339.799 86.93C336.799 85.49 334.129 83.57 331.789 81.17C329.509 78.71 327.679 75.83 326.299 72.53C324.919 69.17 324.229 65.6 324.229 61.82V0.709994H336.199V61.82C336.199 63.62 336.529 65.45 337.189 67.31C337.849 69.11 338.779 70.73 339.979 72.17C341.239 73.61 342.769 74.78 344.569 75.68C346.369 76.58 348.409 77.03 350.689 77.03H383.359V89ZM353.479 61.82H383.359V73.79H351.859C349.759 73.79 347.929 73.37 346.369 72.53C344.809 71.69 343.519 70.61 342.499 69.29C341.479 67.97 340.699 66.5 340.159 64.88C339.679 63.2 339.439 61.58 339.439 60.02V0.709994H351.769V59.48C351.769 60.2 351.949 60.77 352.309 61.19C352.729 61.55 353.119 61.73 353.479 61.73V61.82Z" fill="#246eb7"/>
</svg>